<svg width="24" height="24" viewBox="0 0 24 24" fill="none" xmlns="http://www.w3.org/2000/svg">
<g clip-path="url(#clip0_59_3127)">
<path d="M6.99985 24C6.86824 24.0007 6.73778 23.9755 6.61594 23.9257C6.4941 23.876 6.38329 23.8027 6.28985 23.71C6.19612 23.617 6.12172 23.5064 6.07096 23.3846C6.02019 23.2627 5.99405 23.132 5.99405 23C5.99405 22.868 6.02019 22.7373 6.07096 22.6154C6.12172 22.4935 6.19612 22.3829 6.28985 22.29L14.4598 14.12C15.0216 13.5575 15.3372 12.795 15.3372 12C15.3372 11.205 15.0216 10.4425 14.4598 9.87999L6.28985 1.71C6.10154 1.5217 5.99576 1.2663 5.99576 1C5.99576 0.7337 6.10154 0.478305 6.28985 0.290002C6.47815 0.101698 6.73355 -0.00408936 6.99985 -0.00408936C7.26615 -0.00408936 7.52154 0.101698 7.70985 0.290002L15.8798 8.45999C16.3455 8.92445 16.7149 9.4762 16.967 10.0837C17.219 10.6911 17.3488 11.3423 17.3488 12C17.3488 12.6577 17.219 13.3089 16.967 13.9163C16.7149 14.5238 16.3455 15.0755 15.8798 15.54L7.70985 23.71C7.61641 23.8027 7.50559 23.876 7.38375 23.9257C7.26192 23.9755 7.13145 24.0007 6.99985 24Z" fill="#374957"/>
</g>
<defs>
<clipPath id="clip0_59_3127">
<rect width="24" height="24" fill="white"/>
</clipPath>
</defs>
</svg>
