<svg width="55" height="55" viewBox="0 0 55 55" fill="none" xmlns="http://www.w3.org/2000/svg">
<circle cx="27.5" cy="27.5" r="27" fill="#486284" stroke="#486284"/>
<path d="M38.5 34H34.7125C34.4889 34.0002 34.2682 34.0509 34.0669 34.1483C33.8656 34.2457 33.6889 34.3873 33.55 34.5625L29.1625 40.0375C29.022 40.2132 28.8437 40.3551 28.6409 40.4526C28.4381 40.5501 28.216 40.6007 27.991 40.6007C27.766 40.6007 27.5439 40.5501 27.3411 40.4526C27.1383 40.3551 26.96 40.2132 26.8195 40.0375L22.432 34.5625C22.2929 34.3871 22.116 34.2453 21.9144 34.1479C21.7129 34.0505 21.4919 34 21.268 34H17.5C15.007 34 13 31.993 13 29.5V19C13 16.507 15.007 14.5 17.5 14.5H38.5C40.9945 14.5 43 16.507 43 19V29.5C43 31.993 40.9945 34 38.5 34Z" fill="white"/>
</svg>
