<svg width="55" height="55" viewBox="0 0 55 55" fill="none" xmlns="http://www.w3.org/2000/svg">
<circle cx="27.5" cy="27.5" r="27.5" fill="#486284"/>
<path d="M22 14.5C22.75 14.5 25.75 21.25 25.75 22C25.75 23.5 23.5 25 22.75 26.5C22 28 23.5 29.5 25 31C25.585 31.585 28 34 29.5 33.25C31 32.5 32.5 30.25 34 30.25C34.75 30.25 41.5 33.25 41.5 34C41.5 37 39.25 39.25 37 40C34.75 40.75 33.25 40.75 30.25 40C27.25 39.25 25 38.5 21.25 34.75C17.5 31 16.75 28.75 16 25.75C15.25 22.75 15.25 21.25 16 19C16.75 16.75 19 14.5 22 14.5Z" fill="white"/>
</svg>
