<svg width="30" height="30" viewBox="0 0 30 30" fill="none" xmlns="http://www.w3.org/2000/svg">
<circle cx="15" cy="15" r="14.5" stroke="#486284"/>
<path d="M18.3998 12.88L13.8098 8.29001C13.6224 8.10376 13.369 7.99922 13.1048 7.99922C12.8406 7.99922 12.5872 8.10376 12.3998 8.29001C12.3061 8.38298 12.2317 8.49358 12.1809 8.61544C12.1301 8.7373 12.104 8.868 12.104 9.00001C12.104 9.13203 12.1301 9.26273 12.1809 9.38459C12.2317 9.50645 12.3061 9.61705 12.3998 9.71001L16.9998 14.29C17.0935 14.383 17.1679 14.4936 17.2187 14.6154C17.2695 14.7373 17.2956 14.868 17.2956 15C17.2956 15.132 17.2695 15.2627 17.2187 15.3846C17.1679 15.5065 17.0935 15.6171 16.9998 15.71L12.3998 20.29C12.2115 20.477 12.1052 20.7311 12.1042 20.9965C12.1033 21.2618 12.2078 21.5167 12.3948 21.705C12.5818 21.8933 12.8359 21.9996 13.1013 22.0006C13.3666 22.0015 13.6215 21.897 13.8098 21.71L18.3998 17.12C18.9616 16.5575 19.2772 15.795 19.2772 15C19.2772 14.205 18.9616 13.4425 18.3998 12.88Z" fill="#486284"/>
</svg>
