<svg width="19" height="20" viewBox="0 0 19 20" fill="none" xmlns="http://www.w3.org/2000/svg">
<path d="M9.16672 13.3333C9.55477 13.3341 9.93762 13.2445 10.285 13.0717L11.9517 12.2383C12.8012 11.8165 13.3371 10.9485 13.3334 10V7.52752C13.3363 6.5799 12.8006 5.71295 11.9517 5.2917L10.285 4.45838C9.58086 4.10838 8.7534 4.10838 8.04922 4.45838L6.38254 5.2917C5.5334 5.71271 4.99727 6.57975 5.00004 7.52752V10C4.997 10.9479 5.53274 11.8151 6.38172 12.2367L8.0484 13.07C8.39567 13.2434 8.77856 13.3336 9.16672 13.3333ZM6.66672 10V7.52752C6.66805 7.44252 6.68239 7.35818 6.70922 7.27752L8.5259 8.18584C8.92934 8.38748 9.40415 8.38748 9.80758 8.18584L11.6243 7.27752C11.6511 7.35818 11.6654 7.44252 11.6668 7.52752V10C11.6681 10.3162 11.4893 10.6056 11.2059 10.7458L9.53926 11.5792C9.30426 11.6954 9.02844 11.6954 8.79344 11.5792L7.12676 10.7458C6.84368 10.6053 6.66524 10.316 6.66672 10ZM15 18.3333H12.7425L15.6484 15.6483C19.2282 12.0686 19.2283 6.26459 15.6486 2.68471C12.0688 -0.895176 6.26485 -0.895215 2.68497 2.68451C-0.894917 6.26424 -0.894995 12.0683 2.68477 15.6481C2.69262 15.656 5.5909 18.3333 5.5909 18.3333H3.3334C2.87317 18.3333 2.50008 18.7064 2.50008 19.1667C2.50008 19.6269 2.87317 20 3.3334 20H15.0001C15.4603 20 15.8334 19.6269 15.8334 19.1667C15.8334 18.7065 15.4603 18.3333 15 18.3333ZM3.8634 3.86334C6.7859 0.927715 11.5348 0.91709 14.4705 3.83959C17.4061 6.76209 17.4167 11.511 14.4942 14.4467L11.1734 17.5142C10.04 18.5825 8.26848 18.5763 7.14258 17.5L3.8634 14.47C0.938989 11.5392 0.939028 6.7942 3.8634 3.86334Z" fill="white"/>
</svg>
