<svg width="21" height="17" viewBox="0 0 21 17" fill="none" xmlns="http://www.w3.org/2000/svg">
<path d="M3.375 0C2.47989 0 1.62145 0.355579 0.988515 0.988515C0.355579 1.62145 0 2.47989 0 3.375V13.125C0 14.0201 0.355579 14.8785 0.988515 15.5115C1.62145 16.1444 2.47989 16.5 3.375 16.5H17.625C18.5201 16.5 19.3785 16.1444 20.0115 15.5115C20.6444 14.8785 21 14.0201 21 13.125V3.375C21 2.47989 20.6444 1.62145 20.0115 0.988515C19.3785 0.355579 18.5201 0 17.625 0H3.375ZM19.5 4.05225L10.5 8.898L1.5 4.05225V3.375C1.5 2.87772 1.69754 2.40081 2.04917 2.04917C2.40081 1.69754 2.87772 1.5 3.375 1.5H17.625C18.1223 1.5 18.5992 1.69754 18.9508 2.04917C19.3025 2.40081 19.5 2.87772 19.5 3.375V4.05225ZM1.5 5.7555L10.1445 10.4108C10.2538 10.4696 10.3759 10.5004 10.5 10.5004C10.6241 10.5004 10.7462 10.4696 10.8555 10.4108L19.5 5.7555V13.125C19.5 13.6223 19.3025 14.0992 18.9508 14.4508C18.5992 14.8025 18.1223 15 17.625 15H3.375C2.87772 15 2.40081 14.8025 2.04917 14.4508C1.69754 14.0992 1.5 13.6223 1.5 13.125V5.7555Z" fill="#486284"/>
</svg>
