<svg width="923" height="620" viewBox="0 0 923 620" fill="none" xmlns="http://www.w3.org/2000/svg">
<path d="M49.8682 372.557V460.9H82.9453V436.901H120.272V460.9H130.31V419.083L153.311 378.359V419.473H154.316V378.359L177.329 419.105V460.9H197.462V372.513L208.739 352.553L220.019 372.525V460.9H233.361V372.894H255.917V460.9H318.967V404.396H356.287V460.9H367.208V427.428H404.534V460.9H469.367V532.804H510.972V508.282H536.862V574.332H567.632V542.713H595.896V590.524H623.178V619.021H0.5V425.835H11.9385V460.9H27.3135V342.232L49.8682 372.557Z" stroke="#CBC9C1"/>
<path d="M182.329 619.117H98.1482V220.082L182.329 136.988V619.117Z" stroke="#486284"/>
<path d="M182.328 43.5177V140.624H180.597V43.5177H182.328Z" stroke="#486284"/>
<path d="M182.328 619.117H108.061V235.126L182.328 161.813V619.117Z" stroke="#486284"/>
<path d="M182.327 163.82L109.381 235.832L109.232 235.979V307.346L110.084 306.505L182.327 235.186V240.612L109.381 312.62L109.232 312.766V383.998L110.084 383.157L182.327 311.843V317.272L109.381 389.28L109.232 389.427V465.383L110.084 464.542L182.327 393.227V398.649L109.381 470.665L109.232 470.811V541.416L110.084 540.575L182.327 469.261V474.682L109.381 546.69L109.232 546.837V615.45L110.084 614.609L182.327 543.287V548.717L111.01 619.114H105.888V235.004C105.907 234.96 105.925 234.907 105.934 234.846L105.938 234.813L105.939 234.781C105.94 234.704 105.961 234.622 106.011 234.5C106.038 234.436 106.066 234.374 106.102 234.292C106.134 234.22 106.169 234.137 106.203 234.047L106.204 234.048C106.243 233.954 106.275 233.862 106.302 233.781C106.331 233.696 106.354 233.629 106.379 233.561C106.428 233.429 106.47 233.353 106.515 233.302L106.514 233.301C106.572 233.237 106.605 233.174 106.623 233.131C106.625 233.125 106.626 233.119 106.628 233.114L182.327 158.394V163.82Z" stroke="#486284"/>
<path d="M334.029 448.344V471.98H361.669V493.368H389.3V619.021H307.396V448.344H334.029Z" stroke="#486284"/>
<path d="M311.15 448.344V619.021H307.396V448.344H311.15Z" stroke="#486284"/>
<path d="M338.675 472.187V619.021H334.922V472.187H338.675Z" stroke="#486284"/>
<path d="M366.398 493.405V619.02H362.645V493.405H366.398Z" stroke="#486284"/>
<path d="M332.519 451.08H329.427V454.869H332.519V451.08Z" fill="#486284"/>
<path d="M332.519 458.682H329.427V462.472H332.519V458.682Z" fill="#486284"/>
<path d="M332.519 465.714H329.427V469.512H332.519V465.714Z" fill="#486284"/>
<path d="M332.519 473.066H329.427V476.855H332.519V473.066Z" fill="#486284"/>
<path d="M332.519 480.659H329.427V484.456H332.519V480.659Z" fill="#486284"/>
<path d="M332.519 487.7H329.427V491.489H332.519V487.7Z" fill="#486284"/>
<path d="M332.519 495.19H329.427V498.987H332.519V495.19Z" fill="#486284"/>
<path d="M332.519 502.791H329.427V506.58H332.519V502.791Z" fill="#486284"/>
<path d="M332.519 509.832H329.427V513.621H332.519V509.832Z" fill="#486284"/>
<path d="M332.519 517.175H329.427V520.964H332.519V517.175Z" fill="#486284"/>
<path d="M332.519 524.776H329.427V528.565H332.519V524.776Z" fill="#486284"/>
<path d="M332.519 531.809H329.427V535.607H332.519V531.809Z" fill="#486284"/>
<path d="M332.519 539.374H329.427V543.17H332.519V539.374Z" fill="#486284"/>
<path d="M332.519 546.975H329.427V550.764H332.519V546.975Z" fill="#486284"/>
<path d="M332.519 554.015H329.427V557.805H332.519V554.015Z" fill="#486284"/>
<path d="M332.519 561.358H329.427V565.147H332.519V561.358Z" fill="#486284"/>
<path d="M332.519 568.96H329.427V572.75H332.519V568.96Z" fill="#486284"/>
<path d="M332.519 575.993H329.427V579.79H332.519V575.993Z" fill="#486284"/>
<path d="M332.519 583.417H329.427V587.214H332.519V583.417Z" fill="#486284"/>
<path d="M332.519 591.018H329.427V594.808H332.519V591.018Z" fill="#486284"/>
<path d="M332.519 598.059H329.427V601.849H332.519V598.059Z" fill="#486284"/>
<path d="M332.519 605.402H329.427V609.198H332.519V605.402Z" fill="#486284"/>
<path d="M326.499 451.08H323.407V454.869H326.499V451.08Z" fill="#486284"/>
<path d="M326.499 458.682H323.407V462.472H326.499V458.682Z" fill="#486284"/>
<path d="M326.499 465.714H323.407V469.512H326.499V465.714Z" fill="#486284"/>
<path d="M326.499 473.066H323.407V476.855H326.499V473.066Z" fill="#486284"/>
<path d="M326.499 480.659H323.407V484.456H326.499V480.659Z" fill="#486284"/>
<path d="M326.499 487.7H323.407V491.489H326.499V487.7Z" fill="#486284"/>
<path d="M326.499 495.19H323.407V498.987H326.499V495.19Z" fill="#486284"/>
<path d="M326.499 502.791H323.407V506.58H326.499V502.791Z" fill="#486284"/>
<path d="M326.499 509.832H323.407V513.621H326.499V509.832Z" fill="#486284"/>
<path d="M326.499 517.175H323.407V520.964H326.499V517.175Z" fill="#486284"/>
<path d="M326.499 524.776H323.407V528.565H326.499V524.776Z" fill="#486284"/>
<path d="M326.499 531.809H323.407V535.607H326.499V531.809Z" fill="#486284"/>
<path d="M326.499 539.374H323.407V543.17H326.499V539.374Z" fill="#486284"/>
<path d="M326.499 546.975H323.407V550.764H326.499V546.975Z" fill="#486284"/>
<path d="M326.499 554.015H323.407V557.805H326.499V554.015Z" fill="#486284"/>
<path d="M326.499 561.358H323.407V565.147H326.499V561.358Z" fill="#486284"/>
<path d="M326.499 568.96H323.407V572.75H326.499V568.96Z" fill="#486284"/>
<path d="M326.499 575.993H323.407V579.79H326.499V575.993Z" fill="#486284"/>
<path d="M326.499 583.417H323.407V587.214H326.499V583.417Z" fill="#486284"/>
<path d="M326.499 591.018H323.407V594.808H326.499V591.018Z" fill="#486284"/>
<path d="M326.499 598.059H323.407V601.849H326.499V598.059Z" fill="#486284"/>
<path d="M326.499 605.402H323.407V609.198H326.499V605.402Z" fill="#486284"/>
<path d="M320.39 451.08H317.298V454.869H320.39V451.08Z" fill="#486284"/>
<path d="M320.39 458.682H317.298V462.472H320.39V458.682Z" fill="#486284"/>
<path d="M320.39 465.714H317.298V469.512H320.39V465.714Z" fill="#486284"/>
<path d="M320.39 473.066H317.298V476.855H320.39V473.066Z" fill="#486284"/>
<path d="M320.39 480.659H317.298V484.456H320.39V480.659Z" fill="#486284"/>
<path d="M320.39 487.7H317.298V491.489H320.39V487.7Z" fill="#486284"/>
<path d="M320.39 495.19H317.298V498.987H320.39V495.19Z" fill="#486284"/>
<path d="M320.39 502.791H317.298V506.58H320.39V502.791Z" fill="#486284"/>
<path d="M320.39 509.832H317.298V513.621H320.39V509.832Z" fill="#486284"/>
<path d="M320.39 517.175H317.298V520.964H320.39V517.175Z" fill="#486284"/>
<path d="M320.39 524.776H317.298V528.565H320.39V524.776Z" fill="#486284"/>
<path d="M320.39 531.809H317.298V535.607H320.39V531.809Z" fill="#486284"/>
<path d="M320.39 539.374H317.298V543.17H320.39V539.374Z" fill="#486284"/>
<path d="M320.39 546.975H317.298V550.764H320.39V546.975Z" fill="#486284"/>
<path d="M320.39 554.015H317.298V557.805H320.39V554.015Z" fill="#486284"/>
<path d="M320.39 561.358H317.298V565.147H320.39V561.358Z" fill="#486284"/>
<path d="M320.39 568.96H317.298V572.75H320.39V568.96Z" fill="#486284"/>
<path d="M320.39 575.993H317.298V579.79H320.39V575.993Z" fill="#486284"/>
<path d="M320.39 583.417H317.298V587.214H320.39V583.417Z" fill="#486284"/>
<path d="M320.39 591.018H317.298V594.808H320.39V591.018Z" fill="#486284"/>
<path d="M320.39 598.059H317.298V601.849H320.39V598.059Z" fill="#486284"/>
<path d="M320.39 605.402H317.298V609.198H320.39V605.402Z" fill="#486284"/>
<path d="M359.57 473.066H356.478V476.855H359.57V473.066Z" fill="#486284"/>
<path d="M359.57 480.659H356.478V484.456H359.57V480.659Z" fill="#486284"/>
<path d="M359.57 487.7H356.478V491.489H359.57V487.7Z" fill="#486284"/>
<path d="M359.57 495.05H356.478V498.839H359.57V495.05Z" fill="#486284"/>
<path d="M359.57 502.643H356.478V506.441H359.57V502.643Z" fill="#486284"/>
<path d="M359.57 509.677H356.478V513.474H359.57V509.677Z" fill="#486284"/>
<path d="M359.57 517.175H356.478V520.964H359.57V517.175Z" fill="#486284"/>
<path d="M359.57 524.776H356.478V528.565H359.57V524.776Z" fill="#486284"/>
<path d="M359.57 531.809H356.478V535.607H359.57V531.809Z" fill="#486284"/>
<path d="M359.57 539.161H356.478V542.95H359.57V539.161Z" fill="#486284"/>
<path d="M359.57 546.754H356.478V550.551H359.57V546.754Z" fill="#486284"/>
<path d="M359.57 553.795H356.478V557.585H359.57V553.795Z" fill="#486284"/>
<path d="M359.57 561.358H356.478V565.147H359.57V561.358Z" fill="#486284"/>
<path d="M359.57 568.96H356.478V572.75H359.57V568.96Z" fill="#486284"/>
<path d="M359.57 575.993H356.478V579.79H359.57V575.993Z" fill="#486284"/>
<path d="M359.57 583.344H356.478V587.134H359.57V583.344Z" fill="#486284"/>
<path d="M359.57 590.938H356.478V594.734H359.57V590.938Z" fill="#486284"/>
<path d="M359.57 597.979H356.478V601.768H359.57V597.979Z" fill="#486284"/>
<path d="M359.57 605.402H356.478V609.198H359.57V605.402Z" fill="#486284"/>
<path d="M353.551 473.066H350.46V476.855H353.551V473.066Z" fill="#486284"/>
<path d="M353.551 480.659H350.46V484.456H353.551V480.659Z" fill="#486284"/>
<path d="M353.551 487.7H350.46V491.489H353.551V487.7Z" fill="#486284"/>
<path d="M353.551 495.05H350.46V498.839H353.551V495.05Z" fill="#486284"/>
<path d="M353.551 502.643H350.46V506.441H353.551V502.643Z" fill="#486284"/>
<path d="M353.551 509.677H350.46V513.474H353.551V509.677Z" fill="#486284"/>
<path d="M353.551 517.175H350.46V520.964H353.551V517.175Z" fill="#486284"/>
<path d="M353.551 524.776H350.46V528.565H353.551V524.776Z" fill="#486284"/>
<path d="M353.551 531.809H350.46V535.607H353.551V531.809Z" fill="#486284"/>
<path d="M353.551 539.161H350.46V542.95H353.551V539.161Z" fill="#486284"/>
<path d="M353.551 546.754H350.46V550.551H353.551V546.754Z" fill="#486284"/>
<path d="M353.551 553.795H350.46V557.585H353.551V553.795Z" fill="#486284"/>
<path d="M353.551 561.358H350.46V565.147H353.551V561.358Z" fill="#486284"/>
<path d="M353.551 568.96H350.46V572.75H353.551V568.96Z" fill="#486284"/>
<path d="M353.551 575.993H350.46V579.79H353.551V575.993Z" fill="#486284"/>
<path d="M353.551 583.344H350.46V587.134H353.551V583.344Z" fill="#486284"/>
<path d="M353.551 590.938H350.46V594.734H353.551V590.938Z" fill="#486284"/>
<path d="M353.551 597.979H350.46V601.768H353.551V597.979Z" fill="#486284"/>
<path d="M353.551 605.402H350.46V609.198H353.551V605.402Z" fill="#486284"/>
<path d="M347.444 473.066H344.352V476.855H347.444V473.066Z" fill="#486284"/>
<path d="M347.444 480.659H344.352V484.456H347.444V480.659Z" fill="#486284"/>
<path d="M347.444 487.7H344.352V491.489H347.444V487.7Z" fill="#486284"/>
<path d="M347.444 495.05H344.352V498.839H347.444V495.05Z" fill="#486284"/>
<path d="M347.444 502.643H344.352V506.441H347.444V502.643Z" fill="#486284"/>
<path d="M347.444 509.677H344.352V513.474H347.444V509.677Z" fill="#486284"/>
<path d="M347.444 517.175H344.352V520.964H347.444V517.175Z" fill="#486284"/>
<path d="M347.444 524.776H344.352V528.565H347.444V524.776Z" fill="#486284"/>
<path d="M347.444 531.809H344.352V535.607H347.444V531.809Z" fill="#486284"/>
<path d="M347.444 539.161H344.352V542.95H347.444V539.161Z" fill="#486284"/>
<path d="M347.444 546.754H344.352V550.551H347.444V546.754Z" fill="#486284"/>
<path d="M347.444 553.795H344.352V557.585H347.444V553.795Z" fill="#486284"/>
<path d="M347.444 561.358H344.352V565.147H347.444V561.358Z" fill="#486284"/>
<path d="M347.444 568.96H344.352V572.75H347.444V568.96Z" fill="#486284"/>
<path d="M347.444 575.993H344.352V579.79H347.444V575.993Z" fill="#486284"/>
<path d="M347.444 583.344H344.352V587.134H347.444V583.344Z" fill="#486284"/>
<path d="M347.444 590.938H344.352V594.734H347.444V590.938Z" fill="#486284"/>
<path d="M347.444 597.979H344.352V601.768H347.444V597.979Z" fill="#486284"/>
<path d="M347.444 605.402H344.352V609.198H347.444V605.402Z" fill="#486284"/>
<path d="M387.822 495.05H384.729V498.839H387.822V495.05Z" fill="#486284"/>
<path d="M387.822 502.643H384.729V506.441H387.822V502.643Z" fill="#486284"/>
<path d="M387.822 509.677H384.729V513.474H387.822V509.677Z" fill="#486284"/>
<path d="M387.822 517.028H384.729V520.826H387.822V517.028Z" fill="#486284"/>
<path d="M387.822 524.629H384.729V528.418H387.822V524.629Z" fill="#486284"/>
<path d="M387.822 531.67H384.729V535.459H387.822V531.67Z" fill="#486284"/>
<path d="M387.822 539.161H384.729V542.95H387.822V539.161Z" fill="#486284"/>
<path d="M387.822 546.754H384.729V550.551H387.822V546.754Z" fill="#486284"/>
<path d="M387.822 553.795H384.729V557.585H387.822V553.795Z" fill="#486284"/>
<path d="M387.822 561.138H384.729V564.934H387.822V561.138Z" fill="#486284"/>
<path d="M387.822 568.738H384.729V572.528H387.822V568.738Z" fill="#486284"/>
<path d="M387.822 575.779H384.729V579.569H387.822V575.779Z" fill="#486284"/>
<path d="M387.822 583.344H384.729V587.134H387.822V583.344Z" fill="#486284"/>
<path d="M387.822 590.938H384.729V594.734H387.822V590.938Z" fill="#486284"/>
<path d="M387.822 597.979H384.729V601.768H387.822V597.979Z" fill="#486284"/>
<path d="M387.822 605.328H384.729V609.118H387.822V605.328Z" fill="#486284"/>
<path d="M381.801 495.05H378.709V498.839H381.801V495.05Z" fill="#486284"/>
<path d="M381.801 502.643H378.709V506.441H381.801V502.643Z" fill="#486284"/>
<path d="M381.801 509.677H378.709V513.474H381.801V509.677Z" fill="#486284"/>
<path d="M381.801 517.028H378.709V520.826H381.801V517.028Z" fill="#486284"/>
<path d="M381.801 524.629H378.709V528.418H381.801V524.629Z" fill="#486284"/>
<path d="M381.801 531.67H378.709V535.459H381.801V531.67Z" fill="#486284"/>
<path d="M381.801 539.161H378.709V542.95H381.801V539.161Z" fill="#486284"/>
<path d="M381.801 546.754H378.709V550.551H381.801V546.754Z" fill="#486284"/>
<path d="M381.801 553.795H378.709V557.585H381.801V553.795Z" fill="#486284"/>
<path d="M381.801 561.138H378.709V564.934H381.801V561.138Z" fill="#486284"/>
<path d="M381.801 568.738H378.709V572.528H381.801V568.738Z" fill="#486284"/>
<path d="M381.801 575.779H378.709V579.569H381.801V575.779Z" fill="#486284"/>
<path d="M381.801 583.344H378.709V587.134H381.801V583.344Z" fill="#486284"/>
<path d="M381.801 590.938H378.709V594.734H381.801V590.938Z" fill="#486284"/>
<path d="M381.801 597.979H378.709V601.768H381.801V597.979Z" fill="#486284"/>
<path d="M381.801 605.328H378.709V609.118H381.801V605.328Z" fill="#486284"/>
<path d="M375.692 495.05H372.6V498.839H375.692V495.05Z" fill="#486284"/>
<path d="M375.692 502.643H372.6V506.441H375.692V502.643Z" fill="#486284"/>
<path d="M375.692 509.677H372.6V513.474H375.692V509.677Z" fill="#486284"/>
<path d="M375.692 517.028H372.6V520.826H375.692V517.028Z" fill="#486284"/>
<path d="M375.692 524.629H372.6V528.418H375.692V524.629Z" fill="#486284"/>
<path d="M375.692 531.67H372.6V535.459H375.692V531.67Z" fill="#486284"/>
<path d="M375.692 539.161H372.6V542.95H375.692V539.161Z" fill="#486284"/>
<path d="M375.692 546.754H372.6V550.551H375.692V546.754Z" fill="#486284"/>
<path d="M375.692 553.795H372.6V557.585H375.692V553.795Z" fill="#486284"/>
<path d="M375.692 561.138H372.6V564.934H375.692V561.138Z" fill="#486284"/>
<path d="M375.692 568.738H372.6V572.528H375.692V568.738Z" fill="#486284"/>
<path d="M375.692 575.779H372.6V579.569H375.692V575.779Z" fill="#486284"/>
<path d="M375.692 583.344H372.6V587.134H375.692V583.344Z" fill="#486284"/>
<path d="M375.692 590.938H372.6V594.734H375.692V590.938Z" fill="#486284"/>
<path d="M375.692 597.979H372.6V601.768H375.692V597.979Z" fill="#486284"/>
<path d="M375.692 605.328H372.6V609.118H375.692V605.328Z" fill="#486284"/>
<path d="M97.1484 452.547V619.5H0.5V515.191H28.5996V452.547H97.1484Z" stroke="#486284"/>
<path d="M92.9453 459.203V464.191H89.0664V459.203H92.9453Z" stroke="#486284"/>
<path d="M92.9453 471.199V476.186H89.0664V471.199H92.9453Z" stroke="#486284"/>
<path d="M92.9453 482.309V487.296H89.0664V482.309H92.9453Z" stroke="#486284"/>
<path d="M92.9453 493.906V498.893H89.0664V493.906H92.9453Z" stroke="#486284"/>
<path d="M92.9453 505.901V510.889H89.0664V505.901H92.9453Z" stroke="#486284"/>
<path d="M92.9453 517.012V521.998H89.0664V517.012H92.9453Z" stroke="#486284"/>
<path d="M92.9453 528.837V533.824H89.0664V528.837H92.9453Z" stroke="#486284"/>
<path d="M92.9453 540.832V545.819H89.0664V540.832H92.9453Z" stroke="#486284"/>
<path d="M92.9453 551.943V556.93H89.0664V551.943H92.9453Z" stroke="#486284"/>
<path d="M92.9453 563.539V568.533H89.0664V563.539H92.9453Z" stroke="#486284"/>
<path d="M92.9453 575.535V580.529H89.0664V575.535H92.9453Z" stroke="#486284"/>
<path d="M92.9453 586.645V591.638H89.0664V586.645H92.9453Z" stroke="#486284"/>
<path d="M82.9915 459.203V464.191H79.1116V459.203H82.9915Z" stroke="#486284"/>
<path d="M82.9915 471.199V476.186H79.1116V471.199H82.9915Z" stroke="#486284"/>
<path d="M82.9915 482.309V487.296H79.1116V482.309H82.9915Z" stroke="#486284"/>
<path d="M82.9915 493.906V498.893H79.1116V493.906H82.9915Z" stroke="#486284"/>
<path d="M82.9915 505.901V510.889H79.1116V505.901H82.9915Z" stroke="#486284"/>
<path d="M82.9915 517.012V521.998H79.1116V517.012H82.9915Z" stroke="#486284"/>
<path d="M82.9915 528.837V533.824H79.1116V528.837H82.9915Z" stroke="#486284"/>
<path d="M82.9915 540.832V545.819H79.1116V540.832H82.9915Z" stroke="#486284"/>
<path d="M82.9915 551.943V556.93H79.1116V551.943H82.9915Z" stroke="#486284"/>
<path d="M82.9915 563.539V568.533H79.1116V563.539H82.9915Z" stroke="#486284"/>
<path d="M82.9915 575.535V580.529H79.1116V575.535H82.9915Z" stroke="#486284"/>
<path d="M82.9915 586.645V591.638H79.1116V586.645H82.9915Z" stroke="#486284"/>
<path d="M73.3921 459.203V464.191H69.5122V459.203H73.3921Z" stroke="#486284"/>
<path d="M73.3921 471.199V476.186H69.5122V471.199H73.3921Z" stroke="#486284"/>
<path d="M73.3921 482.309V487.296H69.5122V482.309H73.3921Z" stroke="#486284"/>
<path d="M73.3921 493.906V498.893H69.5122V493.906H73.3921Z" stroke="#486284"/>
<path d="M73.3921 505.901V510.889H69.5122V505.901H73.3921Z" stroke="#486284"/>
<path d="M73.3921 517.012V521.998H69.5122V517.012H73.3921Z" stroke="#486284"/>
<path d="M73.3921 528.837V533.824H69.5122V528.837H73.3921Z" stroke="#486284"/>
<path d="M73.3921 540.832V545.819H69.5122V540.832H73.3921Z" stroke="#486284"/>
<path d="M73.3921 551.943V556.93H69.5122V551.943H73.3921Z" stroke="#486284"/>
<path d="M73.3921 563.539V568.533H69.5122V563.539H73.3921Z" stroke="#486284"/>
<path d="M73.3921 575.535V580.529H69.5122V575.535H73.3921Z" stroke="#486284"/>
<path d="M73.3921 586.645V591.638H69.5122V586.645H73.3921Z" stroke="#486284"/>
<path d="M63.6086 459.203V464.191H59.7288V459.203H63.6086Z" stroke="#486284"/>
<path d="M63.6086 471.199V476.186H59.7288V471.199H63.6086Z" stroke="#486284"/>
<path d="M63.6086 482.309V487.296H59.7288V482.309H63.6086Z" stroke="#486284"/>
<path d="M63.6086 493.906V498.893H59.7288V493.906H63.6086Z" stroke="#486284"/>
<path d="M63.6086 505.901V510.889H59.7288V505.901H63.6086Z" stroke="#486284"/>
<path d="M63.6086 517.012V521.998H59.7288V517.012H63.6086Z" stroke="#486284"/>
<path d="M63.6086 528.837V533.824H59.7288V528.837H63.6086Z" stroke="#486284"/>
<path d="M63.6086 540.832V545.819H59.7288V540.832H63.6086Z" stroke="#486284"/>
<path d="M63.6086 551.943V556.93H59.7288V551.943H63.6086Z" stroke="#486284"/>
<path d="M63.6086 563.539V568.533H59.7288V563.539H63.6086Z" stroke="#486284"/>
<path d="M63.6086 575.535V580.529H59.7288V575.535H63.6086Z" stroke="#486284"/>
<path d="M63.6086 586.645V591.638H59.7288V586.645H63.6086Z" stroke="#486284"/>
<path d="M53.2979 459.203V464.191H49.418V459.203H53.2979Z" stroke="#486284"/>
<path d="M53.2979 471.199V476.186H49.418V471.199H53.2979Z" stroke="#486284"/>
<path d="M53.2979 482.309V487.296H49.418V482.309H53.2979Z" stroke="#486284"/>
<path d="M53.2979 493.906V498.893H49.418V493.906H53.2979Z" stroke="#486284"/>
<path d="M53.2979 505.901V510.889H49.418V505.901H53.2979Z" stroke="#486284"/>
<path d="M53.2979 517.012V521.998H49.418V517.012H53.2979Z" stroke="#486284"/>
<path d="M53.2979 528.837V533.824H49.418V528.837H53.2979Z" stroke="#486284"/>
<path d="M53.2979 540.832V545.819H49.418V540.832H53.2979Z" stroke="#486284"/>
<path d="M53.2979 551.943V556.93H49.418V551.943H53.2979Z" stroke="#486284"/>
<path d="M53.2979 563.539V568.533H49.418V563.539H53.2979Z" stroke="#486284"/>
<path d="M53.2979 575.535V580.529H49.418V575.535H53.2979Z" stroke="#486284"/>
<path d="M53.2979 586.645V591.638H49.418V586.645H53.2979Z" stroke="#486284"/>
<path d="M43.6975 459.203V464.191H39.8176V459.203H43.6975Z" stroke="#486284"/>
<path d="M43.6975 471.199V476.186H39.8176V471.199H43.6975Z" stroke="#486284"/>
<path d="M43.6975 482.309V487.296H39.8176V482.309H43.6975Z" stroke="#486284"/>
<path d="M43.6975 493.906V498.893H39.8176V493.906H43.6975Z" stroke="#486284"/>
<path d="M43.6975 505.901V510.889H39.8176V505.901H43.6975Z" stroke="#486284"/>
<path d="M43.6975 517.012V521.998H39.8176V517.012H43.6975Z" stroke="#486284"/>
<path d="M43.6975 528.837V533.824H39.8176V528.837H43.6975Z" stroke="#486284"/>
<path d="M43.6975 540.832V545.819H39.8176V540.832H43.6975Z" stroke="#486284"/>
<path d="M43.6975 551.943V556.93H39.8176V551.943H43.6975Z" stroke="#486284"/>
<path d="M43.6975 563.539V568.533H39.8176V563.539H43.6975Z" stroke="#486284"/>
<path d="M43.6975 575.535V580.529H39.8176V575.535H43.6975Z" stroke="#486284"/>
<path d="M43.6975 586.645V591.638H39.8176V586.645H43.6975Z" stroke="#486284"/>
<path d="M24.509 528.837V533.824H20.6272V528.837H24.509Z" stroke="#486284"/>
<path d="M24.509 540.832V545.819H20.6272V540.832H24.509Z" stroke="#486284"/>
<path d="M24.509 551.943V556.93H20.6272V551.943H24.509Z" stroke="#486284"/>
<path d="M24.509 563.539V568.533H20.6272V563.539H24.509Z" stroke="#486284"/>
<path d="M24.509 575.535V580.529H20.6272V575.535H24.509Z" stroke="#486284"/>
<path d="M24.509 586.645V591.638H20.6272V586.645H24.509Z" stroke="#486284"/>
<path d="M14.5532 528.837V533.824H10.6733V528.837H14.5532Z" stroke="#486284"/>
<path d="M14.5532 540.832V545.819H10.6733V540.832H14.5532Z" stroke="#486284"/>
<path d="M14.5532 551.943V556.93H10.6733V551.943H14.5532Z" stroke="#486284"/>
<path d="M14.5532 563.539V568.533H10.6733V563.539H14.5532Z" stroke="#486284"/>
<path d="M14.5532 575.535V580.529H10.6733V575.535H14.5532Z" stroke="#486284"/>
<path d="M14.5532 586.645V591.638H10.6733V586.645H14.5532Z" stroke="#486284"/>
<path d="M4.95654 528.837V533.824H1.07373V528.837H4.95654Z" stroke="#486284"/>
<path d="M4.95654 540.832V545.819H1.07373V540.832H4.95654Z" stroke="#486284"/>
<path d="M4.95654 551.943V556.93H1.07373V551.943H4.95654Z" stroke="#486284"/>
<path d="M4.95654 563.539V568.533H1.07373V563.539H4.95654Z" stroke="#486284"/>
<path d="M4.95654 575.535V580.529H1.07373V575.535H4.95654Z" stroke="#486284"/>
<path d="M4.95654 586.645V591.638H1.07373V586.645H4.95654Z" stroke="#486284"/>
<path d="M36.2222 452.547V619.5H28.5991V452.547H36.2222Z" stroke="#486284"/>
<path d="M442.927 499.509V544.496H492.876V619.117H393.985V499.509H442.927Z" stroke="#486284"/>
<path d="M399.506 504.287V507.593H397.002V504.287H399.506Z" stroke="#486284"/>
<path d="M399.506 512.905V516.204H397.002V512.905H399.506Z" stroke="#486284"/>
<path d="M399.506 520.883V524.181H397.002V520.883H399.506Z" stroke="#486284"/>
<path d="M399.506 529.213V532.511H397.002V529.213H399.506Z" stroke="#486284"/>
<path d="M399.506 537.824V541.122H397.002V537.824H399.506Z" stroke="#486284"/>
<path d="M399.506 545.801V549.1H397.002V545.801H399.506Z" stroke="#486284"/>
<path d="M399.506 554.295V557.593H397.002V554.295H399.506Z" stroke="#486284"/>
<path d="M399.506 562.906V566.204H397.002V562.906H399.506Z" stroke="#486284"/>
<path d="M399.506 570.883V574.189H397.002V570.883H399.506Z" stroke="#486284"/>
<path d="M399.506 579.213V582.519H397.002V579.213H399.506Z" stroke="#486284"/>
<path d="M399.506 587.824V591.13H397.002V587.824H399.506Z" stroke="#486284"/>
<path d="M399.506 595.801V599.107H397.002V595.801H399.506Z" stroke="#486284"/>
<path d="M406.657 504.287V507.593H404.153V504.287H406.657Z" stroke="#486284"/>
<path d="M406.657 512.905V516.204H404.153V512.905H406.657Z" stroke="#486284"/>
<path d="M406.657 520.883V524.181H404.153V520.883H406.657Z" stroke="#486284"/>
<path d="M406.657 529.213V532.511H404.153V529.213H406.657Z" stroke="#486284"/>
<path d="M406.657 537.824V541.122H404.153V537.824H406.657Z" stroke="#486284"/>
<path d="M406.657 545.801V549.1H404.153V545.801H406.657Z" stroke="#486284"/>
<path d="M406.657 554.295V557.593H404.153V554.295H406.657Z" stroke="#486284"/>
<path d="M406.657 562.906V566.204H404.153V562.906H406.657Z" stroke="#486284"/>
<path d="M406.657 570.883V574.189H404.153V570.883H406.657Z" stroke="#486284"/>
<path d="M406.657 579.213V582.519H404.153V579.213H406.657Z" stroke="#486284"/>
<path d="M406.657 587.824V591.13H404.153V587.824H406.657Z" stroke="#486284"/>
<path d="M406.657 595.801V599.107H404.153V595.801H406.657Z" stroke="#486284"/>
<path d="M413.546 504.287V507.593H411.043V504.287H413.546Z" stroke="#486284"/>
<path d="M413.546 512.905V516.204H411.043V512.905H413.546Z" stroke="#486284"/>
<path d="M413.546 520.883V524.181H411.043V520.883H413.546Z" stroke="#486284"/>
<path d="M413.546 529.213V532.511H411.043V529.213H413.546Z" stroke="#486284"/>
<path d="M413.546 537.824V541.122H411.043V537.824H413.546Z" stroke="#486284"/>
<path d="M413.546 545.801V549.1H411.043V545.801H413.546Z" stroke="#486284"/>
<path d="M413.546 554.295V557.593H411.043V554.295H413.546Z" stroke="#486284"/>
<path d="M413.546 562.906V566.204H411.043V562.906H413.546Z" stroke="#486284"/>
<path d="M413.546 570.883V574.189H411.043V570.883H413.546Z" stroke="#486284"/>
<path d="M413.546 579.213V582.519H411.043V579.213H413.546Z" stroke="#486284"/>
<path d="M413.546 587.824V591.13H411.043V587.824H413.546Z" stroke="#486284"/>
<path d="M413.546 595.801V599.107H411.043V595.801H413.546Z" stroke="#486284"/>
<path d="M420.573 504.287V507.593H418.071V504.287H420.573Z" stroke="#486284"/>
<path d="M420.573 512.905V516.204H418.071V512.905H420.573Z" stroke="#486284"/>
<path d="M420.573 520.883V524.181H418.071V520.883H420.573Z" stroke="#486284"/>
<path d="M420.573 529.213V532.511H418.071V529.213H420.573Z" stroke="#486284"/>
<path d="M420.573 537.824V541.122H418.071V537.824H420.573Z" stroke="#486284"/>
<path d="M420.573 545.801V549.1H418.071V545.801H420.573Z" stroke="#486284"/>
<path d="M420.573 554.295V557.593H418.071V554.295H420.573Z" stroke="#486284"/>
<path d="M420.573 562.906V566.204H418.071V562.906H420.573Z" stroke="#486284"/>
<path d="M420.573 570.883V574.189H418.071V570.883H420.573Z" stroke="#486284"/>
<path d="M420.573 579.213V582.519H418.071V579.213H420.573Z" stroke="#486284"/>
<path d="M420.573 587.824V591.13H418.071V587.824H420.573Z" stroke="#486284"/>
<path d="M420.573 595.801V599.107H418.071V595.801H420.573Z" stroke="#486284"/>
<path d="M427.979 504.287V507.593H425.476V504.287H427.979Z" stroke="#486284"/>
<path d="M427.979 512.905V516.204H425.476V512.905H427.979Z" stroke="#486284"/>
<path d="M427.979 520.883V524.181H425.476V520.883H427.979Z" stroke="#486284"/>
<path d="M427.979 529.213V532.511H425.476V529.213H427.979Z" stroke="#486284"/>
<path d="M427.979 537.824V541.122H425.476V537.824H427.979Z" stroke="#486284"/>
<path d="M427.979 545.801V549.1H425.476V545.801H427.979Z" stroke="#486284"/>
<path d="M427.979 554.295V557.593H425.476V554.295H427.979Z" stroke="#486284"/>
<path d="M427.979 562.906V566.204H425.476V562.906H427.979Z" stroke="#486284"/>
<path d="M427.979 570.883V574.189H425.476V570.883H427.979Z" stroke="#486284"/>
<path d="M427.979 579.213V582.519H425.476V579.213H427.979Z" stroke="#486284"/>
<path d="M427.979 587.824V591.13H425.476V587.824H427.979Z" stroke="#486284"/>
<path d="M427.979 595.801V599.107H425.476V595.801H427.979Z" stroke="#486284"/>
<path d="M434.872 504.287V507.593H432.369V504.287H434.872Z" stroke="#486284"/>
<path d="M434.872 512.905V516.204H432.369V512.905H434.872Z" stroke="#486284"/>
<path d="M434.872 520.883V524.181H432.369V520.883H434.872Z" stroke="#486284"/>
<path d="M434.872 529.213V532.511H432.369V529.213H434.872Z" stroke="#486284"/>
<path d="M434.872 537.824V541.122H432.369V537.824H434.872Z" stroke="#486284"/>
<path d="M434.872 545.801V549.1H432.369V545.801H434.872Z" stroke="#486284"/>
<path d="M434.872 554.295V557.593H432.369V554.295H434.872Z" stroke="#486284"/>
<path d="M434.872 562.906V566.204H432.369V562.906H434.872Z" stroke="#486284"/>
<path d="M434.872 570.883V574.189H432.369V570.883H434.872Z" stroke="#486284"/>
<path d="M434.872 579.213V582.519H432.369V579.213H434.872Z" stroke="#486284"/>
<path d="M434.872 587.824V591.13H432.369V587.824H434.872Z" stroke="#486284"/>
<path d="M434.872 595.801V599.107H432.369V595.801H434.872Z" stroke="#486284"/>
<path d="M448.651 554.295V557.593H446.147V554.295H448.651Z" stroke="#486284"/>
<path d="M448.651 562.906V566.204H446.147V562.906H448.651Z" stroke="#486284"/>
<path d="M448.651 570.883V574.189H446.147V570.883H448.651Z" stroke="#486284"/>
<path d="M448.651 579.213V582.519H446.147V579.213H448.651Z" stroke="#486284"/>
<path d="M448.651 587.824V591.13H446.147V587.824H448.651Z" stroke="#486284"/>
<path d="M448.651 595.801V599.107H446.147V595.801H448.651Z" stroke="#486284"/>
<path d="M455.802 554.295V557.593H453.296V554.295H455.802Z" stroke="#486284"/>
<path d="M455.802 562.906V566.204H453.296V562.906H455.802Z" stroke="#486284"/>
<path d="M455.802 570.883V574.189H453.296V570.883H455.802Z" stroke="#486284"/>
<path d="M455.802 579.213V582.519H453.296V579.213H455.802Z" stroke="#486284"/>
<path d="M455.802 587.824V591.13H453.296V587.824H455.802Z" stroke="#486284"/>
<path d="M455.802 595.801V599.107H453.296V595.801H455.802Z" stroke="#486284"/>
<path d="M462.691 554.295V557.593H460.188V554.295H462.691Z" stroke="#486284"/>
<path d="M462.691 562.906V566.204H460.188V562.906H462.691Z" stroke="#486284"/>
<path d="M462.691 570.883V574.189H460.188V570.883H462.691Z" stroke="#486284"/>
<path d="M462.691 579.213V582.519H460.188V579.213H462.691Z" stroke="#486284"/>
<path d="M462.691 587.824V591.13H460.188V587.824H462.691Z" stroke="#486284"/>
<path d="M462.691 595.801V599.107H460.188V595.801H462.691Z" stroke="#486284"/>
<path d="M469.722 554.295V557.593H467.216V554.295H469.722Z" stroke="#486284"/>
<path d="M469.722 562.906V566.204H467.216V562.906H469.722Z" stroke="#486284"/>
<path d="M469.722 570.883V574.189H467.216V570.883H469.722Z" stroke="#486284"/>
<path d="M469.722 579.213V582.519H467.216V579.213H469.722Z" stroke="#486284"/>
<path d="M469.722 587.824V591.13H467.216V587.824H469.722Z" stroke="#486284"/>
<path d="M469.722 595.801V599.107H467.216V595.801H469.722Z" stroke="#486284"/>
<path d="M477.125 554.295V557.593H474.622V554.295H477.125Z" stroke="#486284"/>
<path d="M477.125 562.906V566.204H474.622V562.906H477.125Z" stroke="#486284"/>
<path d="M477.125 570.883V574.189H474.622V570.883H477.125Z" stroke="#486284"/>
<path d="M477.125 579.213V582.519H474.622V579.213H477.125Z" stroke="#486284"/>
<path d="M477.125 587.824V591.13H474.622V587.824H477.125Z" stroke="#486284"/>
<path d="M477.125 595.801V599.107H474.622V595.801H477.125Z" stroke="#486284"/>
<path d="M484.018 554.295V557.593H481.515V554.295H484.018Z" stroke="#486284"/>
<path d="M484.018 562.906V566.204H481.515V562.906H484.018Z" stroke="#486284"/>
<path d="M484.018 570.883V574.189H481.515V570.883H484.018Z" stroke="#486284"/>
<path d="M484.018 579.213V582.519H481.515V579.213H484.018Z" stroke="#486284"/>
<path d="M484.018 587.824V591.13H481.515V587.824H484.018Z" stroke="#486284"/>
<path d="M484.018 595.801V599.107H481.515V595.801H484.018Z" stroke="#486284"/>
<path d="M492.876 544.496V619.116H487.68V544.496H492.876Z" stroke="#486284"/>
<path d="M442.927 499.509V619.116H437.738V499.509H442.927Z" stroke="#486284"/>
<path d="M255.89 72.0496V143.594H262.175V215.135H277.195V288.169H284.141V367.991H291.37V475.461H299.209V619.02H191.853V475.461H199.692V367.991H206.917V288.169H213.864V215.135H228.881V143.594H235.169V72.0496H255.89Z" stroke="#486284"/>
<path d="M246.326 0.5L249.371 71.042H241.686L244.5 0.5H246.326Z" stroke="#486284"/>
<path d="M198.932 475.46V619.02H191.853V475.46H198.932Z" stroke="#486284"/>
<path d="M205.903 367.991V482.061H199.692V367.991H205.903Z" stroke="#486284"/>
<path d="M212.9 288.301V374.703H206.903V288.301H212.9Z" stroke="#486284"/>
<path d="M220.372 215.114V293.834H213.864V215.114H220.372Z" stroke="#486284"/>
<path d="M234.17 143.63V221.531H228.881V143.63H234.17Z" stroke="#486284"/>
<path d="M240.666 72.0496V149.22H235.17V72.0496H240.666Z" stroke="#486284"/>
<path d="M277.195 215.116V221.83H213.876V215.116H277.195Z" stroke="#486284"/>
<path d="M262.175 143.631V150.344H228.881V143.631H262.175Z" stroke="#486284"/>
<path d="M284.141 288.301V295.013H206.903V288.301H284.141Z" stroke="#486284"/>
<path d="M291.371 367.991V374.703H199.905V367.991H291.371Z" stroke="#486284"/>
<path d="M299.209 475.46V482.171H191.853V475.46H299.209Z" stroke="#486284"/>
<path d="M211.999 488.789V498.892H203.946V488.789H211.999Z" stroke="#486284"/>
<path d="M225.946 488.789V498.892H217.893V488.789H225.946Z" stroke="#486284"/>
<path d="M239.539 488.789V498.892H231.486V488.789H239.539Z" stroke="#486284"/>
<path d="M253.615 488.789V498.892H245.562V488.789H253.615Z" stroke="#486284"/>
<path d="M267.821 488.789V498.892H259.768V488.789H267.821Z" stroke="#486284"/>
<path d="M281.909 488.789V498.892H273.856V488.789H281.909Z" stroke="#486284"/>
<path d="M296.25 488.789V498.892H288.197V488.789H296.25Z" stroke="#486284"/>
<path d="M218.69 385.397V395.5H210.637V385.397H218.69Z" stroke="#486284"/>
<path d="M232.637 385.397V395.5H224.584V385.397H232.637Z" stroke="#486284"/>
<path d="M246.23 385.397V395.5H238.177V385.397H246.23Z" stroke="#486284"/>
<path d="M260.306 385.397V395.5H252.253V385.397H260.306Z" stroke="#486284"/>
<path d="M274.512 385.397V395.5H266.459V385.397H274.512Z" stroke="#486284"/>
<path d="M288.601 385.397V395.5H280.548V385.397H288.601Z" stroke="#486284"/>
<path d="M225.293 301.461V311.563H217.241V301.461H225.293Z" stroke="#486284"/>
<path d="M239.241 301.461V311.563H231.188V301.461H239.241Z" stroke="#486284"/>
<path d="M252.833 301.461V311.563H244.781V301.461H252.833Z" stroke="#486284"/>
<path d="M266.91 301.461V311.563H258.857V301.461H266.91Z" stroke="#486284"/>
<path d="M281.115 301.461V311.563H273.063V301.461H281.115Z" stroke="#486284"/>
<path d="M232.324 226.951V237.053H224.272V226.951H232.324Z" stroke="#486284"/>
<path d="M246.271 226.951V237.053H238.219V226.951H246.271Z" stroke="#486284"/>
<path d="M259.865 226.951V237.053H251.812V226.951H259.865Z" stroke="#486284"/>
<path d="M273.941 226.951V237.053H265.889V226.951H273.941Z" stroke="#486284"/>
<path d="M245.893 154.051V164.153H237.84V154.051H245.893Z" stroke="#486284"/>
<path d="M259.841 154.051V164.153H251.788V154.051H259.841Z" stroke="#486284"/>
<path d="M245.893 170.252V180.355H237.84V170.252H245.893Z" stroke="#486284"/>
<path d="M259.841 170.252V180.355H251.788V170.252H259.841Z" stroke="#486284"/>
<path d="M245.893 185.977V196.08H237.84V185.977H245.893Z" stroke="#486284"/>
<path d="M259.841 185.977V196.08H251.788V185.977H259.841Z" stroke="#486284"/>
<path d="M245.893 200.763V210.865H237.84V200.763H245.893Z" stroke="#486284"/>
<path d="M259.841 200.763V210.865H251.788V200.763H259.841Z" stroke="#486284"/>
<path d="M232.324 242.698V252.805H224.272V242.698H232.324Z" stroke="#486284"/>
<path d="M246.271 242.698V252.805H238.219V242.698H246.271Z" stroke="#486284"/>
<path d="M259.865 242.698V252.805H251.812V242.698H259.865Z" stroke="#486284"/>
<path d="M273.941 242.698V252.805H265.889V242.698H273.941Z" stroke="#486284"/>
<path d="M232.324 258.39V268.493H224.272V258.39H232.324Z" stroke="#486284"/>
<path d="M246.271 258.39V268.493H238.219V258.39H246.271Z" stroke="#486284"/>
<path d="M259.865 258.39V268.493H251.812V258.39H259.865Z" stroke="#486284"/>
<path d="M273.941 258.39V268.493H265.889V258.39H273.941Z" stroke="#486284"/>
<path d="M232.324 273.49V283.592H224.272V273.49H232.324Z" stroke="#486284"/>
<path d="M246.271 273.49V283.592H238.219V273.49H246.271Z" stroke="#486284"/>
<path d="M259.865 273.49V283.592H251.812V273.49H259.865Z" stroke="#486284"/>
<path d="M273.941 273.49V283.592H265.889V273.49H273.941Z" stroke="#486284"/>
<path d="M225.296 317.754V327.856H217.244V317.754H225.296Z" stroke="#486284"/>
<path d="M239.244 317.754V327.856H231.191V317.754H239.244Z" stroke="#486284"/>
<path d="M252.836 317.754V327.856H244.784V317.754H252.836Z" stroke="#486284"/>
<path d="M266.913 317.754V327.856H258.861V317.754H266.913Z" stroke="#486284"/>
<path d="M281.119 317.754V327.856H273.066V317.754H281.119Z" stroke="#486284"/>
<path d="M225.296 333.783V343.885H217.244V333.783H225.296Z" stroke="#486284"/>
<path d="M239.244 333.783V343.885H231.191V333.783H239.244Z" stroke="#486284"/>
<path d="M252.836 333.783V343.885H244.784V333.783H252.836Z" stroke="#486284"/>
<path d="M266.913 333.783V343.885H258.861V333.783H266.913Z" stroke="#486284"/>
<path d="M281.119 333.783V343.885H273.066V333.783H281.119Z" stroke="#486284"/>
<path d="M225.296 350.459V360.561H217.244V350.459H225.296Z" stroke="#486284"/>
<path d="M239.244 350.459V360.561H231.191V350.459H239.244Z" stroke="#486284"/>
<path d="M252.836 350.459V360.561H244.784V350.459H252.836Z" stroke="#486284"/>
<path d="M266.913 350.459V360.561H258.861V350.459H266.913Z" stroke="#486284"/>
<path d="M281.119 350.459V360.561H273.066V350.459H281.119Z" stroke="#486284"/>
<path d="M218.633 402.73V412.833H210.58V402.73H218.633Z" stroke="#486284"/>
<path d="M232.58 402.73V412.833H224.527V402.73H232.58Z" stroke="#486284"/>
<path d="M246.173 402.73V412.833H238.12V402.73H246.173Z" stroke="#486284"/>
<path d="M260.249 402.73V412.833H252.197V402.73H260.249Z" stroke="#486284"/>
<path d="M274.455 402.73V412.833H266.403V402.73H274.455Z" stroke="#486284"/>
<path d="M288.543 402.73V412.833H280.491V402.73H288.543Z" stroke="#486284"/>
<path d="M218.666 419.952V430.054H210.613V419.952H218.666Z" stroke="#486284"/>
<path d="M232.613 419.952V430.054H224.56V419.952H232.613Z" stroke="#486284"/>
<path d="M246.206 419.952V430.054H238.153V419.952H246.206Z" stroke="#486284"/>
<path d="M260.282 419.952V430.054H252.229V419.952H260.282Z" stroke="#486284"/>
<path d="M274.488 419.952V430.054H266.436V419.952H274.488Z" stroke="#486284"/>
<path d="M288.576 419.952V430.054H280.523V419.952H288.576Z" stroke="#486284"/>
<path d="M218.666 438.045V448.147H210.613V438.045H218.666Z" stroke="#486284"/>
<path d="M232.613 438.045V448.147H224.56V438.045H232.613Z" stroke="#486284"/>
<path d="M246.206 438.045V448.147H238.153V438.045H246.206Z" stroke="#486284"/>
<path d="M260.282 438.045V448.147H252.229V438.045H260.282Z" stroke="#486284"/>
<path d="M274.488 438.045V448.147H266.436V438.045H274.488Z" stroke="#486284"/>
<path d="M288.576 438.045V448.147H280.523V438.045H288.576Z" stroke="#486284"/>
<path d="M218.666 455.562V465.664H210.613V455.562H218.666Z" stroke="#486284"/>
<path d="M232.613 455.562V465.664H224.56V455.562H232.613Z" stroke="#486284"/>
<path d="M246.206 455.562V465.664H238.153V455.562H246.206Z" stroke="#486284"/>
<path d="M260.282 455.562V465.664H252.229V455.562H260.282Z" stroke="#486284"/>
<path d="M274.488 455.562V465.664H266.436V455.562H274.488Z" stroke="#486284"/>
<path d="M288.576 455.562V465.664H280.523V455.562H288.576Z" stroke="#486284"/>
<path d="M211.999 506.528V516.631H203.946V506.528H211.999Z" stroke="#486284"/>
<path d="M225.946 506.528V516.631H217.893V506.528H225.946Z" stroke="#486284"/>
<path d="M239.539 506.528V516.631H231.486V506.528H239.539Z" stroke="#486284"/>
<path d="M253.615 506.528V516.631H245.562V506.528H253.615Z" stroke="#486284"/>
<path d="M267.821 506.528V516.631H259.768V506.528H267.821Z" stroke="#486284"/>
<path d="M281.909 506.528V516.631H273.856V506.528H281.909Z" stroke="#486284"/>
<path d="M296.25 506.528V516.631H288.197V506.528H296.25Z" stroke="#486284"/>
<path d="M211.999 525.047V535.15H203.946V525.047H211.999Z" stroke="#486284"/>
<path d="M225.946 525.047V535.15H217.893V525.047H225.946Z" stroke="#486284"/>
<path d="M239.539 525.047V535.15H231.486V525.047H239.539Z" stroke="#486284"/>
<path d="M253.615 525.047V535.15H245.562V525.047H253.615Z" stroke="#486284"/>
<path d="M267.821 525.047V535.15H259.768V525.047H267.821Z" stroke="#486284"/>
<path d="M281.909 525.047V535.15H273.856V525.047H281.909Z" stroke="#486284"/>
<path d="M296.25 525.047V535.15H288.197V525.047H296.25Z" stroke="#486284"/>
<path d="M211.999 542.978V553.08H203.946V542.978H211.999Z" stroke="#486284"/>
<path d="M225.946 542.978V553.08H217.893V542.978H225.946Z" stroke="#486284"/>
<path d="M239.539 542.978V553.08H231.486V542.978H239.539Z" stroke="#486284"/>
<path d="M253.615 542.978V553.08H245.562V542.978H253.615Z" stroke="#486284"/>
<path d="M267.821 542.978V553.08H259.768V542.978H267.821Z" stroke="#486284"/>
<path d="M281.909 542.978V553.08H273.856V542.978H281.909Z" stroke="#486284"/>
<path d="M296.25 542.978V553.08H288.197V542.978H296.25Z" stroke="#486284"/>
<path d="M211.999 560.745V570.847H203.946V560.745H211.999Z" stroke="#486284"/>
<path d="M225.946 560.745V570.847H217.893V560.745H225.946Z" stroke="#486284"/>
<path d="M239.539 560.745V570.847H231.486V560.745H239.539Z" stroke="#486284"/>
<path d="M253.615 560.745V570.847H245.562V560.745H253.615Z" stroke="#486284"/>
<path d="M267.821 560.745V570.847H259.768V560.745H267.821Z" stroke="#486284"/>
<path d="M281.909 560.745V570.847H273.856V560.745H281.909Z" stroke="#486284"/>
<path d="M296.25 560.745V570.847H288.197V560.745H296.25Z" stroke="#486284"/>
<path d="M211.999 578.912V589.015H203.946V578.912H211.999Z" stroke="#486284"/>
<path d="M225.946 578.912V589.015H217.893V578.912H225.946Z" stroke="#486284"/>
<path d="M239.539 578.912V589.015H231.486V578.912H239.539Z" stroke="#486284"/>
<path d="M253.615 578.912V589.015H245.562V578.912H253.615Z" stroke="#486284"/>
<path d="M267.821 578.912V589.015H259.768V578.912H267.821Z" stroke="#486284"/>
<path d="M281.909 578.912V589.015H273.856V578.912H281.909Z" stroke="#486284"/>
<path d="M296.25 578.912V589.015H288.197V578.912H296.25Z" stroke="#486284"/>
<path d="M211.999 597.313V607.416H203.946V597.313H211.999Z" stroke="#486284"/>
<path d="M225.946 597.313V607.416H217.893V597.313H225.946Z" stroke="#486284"/>
<path d="M239.539 597.313V607.416H231.486V597.313H239.539Z" stroke="#486284"/>
<path d="M253.615 597.313V607.416H245.562V597.313H253.615Z" stroke="#486284"/>
<path d="M267.821 597.313V607.416H259.768V597.313H267.821Z" stroke="#486284"/>
<path d="M281.909 597.313V607.416H273.856V597.313H281.909Z" stroke="#486284"/>
<path d="M296.25 597.313V607.416H288.197V597.313H296.25Z" stroke="#486284"/>
<path d="M922.477 478.424V502.145H0.5V478.424H922.477Z" stroke="#6D6E6E"/>
<path d="M922.5 488.2V506.412H0.523682V488.2H922.5Z" stroke="#908F8F"/>
<path d="M801.676 553.219L801.563 553.081L762.833 505.57L774.981 490.665L810.572 534.322L810.96 534.798L811.347 534.322L846.929 490.665L859.078 505.57L818.883 554.879L818.77 555.017V619.176H801.676V553.219Z" stroke="#6D6E6E"/>
<path d="M810.959 534.006L833.043 506.913L839.809 506.905L814.042 538.047L810.959 534.006Z" fill="#6D6E6E"/>
<path d="M763.277 506.905L801.176 553.396V619.675H805.323V551.42L769.172 506.905H763.277Z" fill="#6D6E6E"/>
<path d="M642.157 553.219L642.045 553.081L603.314 505.57L615.462 490.665L651.053 534.322L651.44 534.798L651.828 534.322L687.41 490.665L699.559 505.57L659.363 554.879L659.251 555.017V619.176H642.157V553.219Z" stroke="#6D6E6E"/>
<path d="M651.44 534.006L673.524 506.913L680.29 506.905L654.523 538.047L651.44 534.006Z" fill="#6D6E6E"/>
<path d="M603.758 506.905L641.657 553.396V619.675H645.804V551.42L609.653 506.905H603.758Z" fill="#6D6E6E"/>
<path d="M478.378 553.197L478.266 553.059L439.535 505.548L451.683 490.643L487.274 534.3L487.661 534.776L488.049 534.3L523.631 490.643L535.78 505.548L495.584 554.857L495.471 554.996V619.154H478.378V553.197Z" stroke="#6D6E6E"/>
<path d="M487.661 533.984L509.744 506.89L516.511 506.883L490.744 538.025L487.661 533.984Z" fill="#6D6E6E"/>
<path d="M439.979 506.883L477.878 553.375V619.654H482.025V551.399L445.874 506.883H439.979Z" fill="#6D6E6E"/>
<path d="M314.126 553.197L314.014 553.059L275.283 505.548L287.432 490.643L323.023 534.3L323.41 534.776L323.797 534.3L359.379 490.643L371.529 505.548L331.332 554.857L331.22 554.996V619.154H314.126V553.197Z" stroke="#6D6E6E"/>
<path d="M323.41 533.984L345.493 506.89L352.26 506.883L326.493 538.025L323.41 533.984Z" fill="#6D6E6E"/>
<path d="M275.727 506.883L313.627 553.375V619.654H317.773V551.399L281.622 506.883H275.727Z" fill="#6D6E6E"/>
<path d="M151.545 553.197L151.433 553.059L112.703 505.548L124.851 490.643L160.442 534.3L160.83 534.776L161.216 534.3L196.798 490.643L208.948 505.548L168.751 554.857L168.639 554.996V619.154H151.545V553.197Z" stroke="#6D6E6E"/>
<path d="M160.829 533.984L182.912 506.89L189.679 506.883L163.911 538.025L160.829 533.984Z" fill="#6D6E6E"/>
<path d="M113.146 506.883L151.046 553.375V619.654H155.193V551.399L119.042 506.883H113.146Z" fill="#6D6E6E"/>
<path d="M496.251 441.5C496.264 441.503 496.28 441.506 496.298 441.51C496.36 441.523 496.454 441.542 496.577 441.568C496.823 441.621 497.188 441.701 497.657 441.809C498.596 442.024 499.958 442.351 501.641 442.798C505.007 443.692 509.66 445.063 514.803 446.972C525.082 450.788 537.25 456.729 545.054 465.249C545.062 465.267 545.071 465.288 545.082 465.312C545.121 465.402 545.177 465.537 545.243 465.708C545.376 466.051 545.548 466.542 545.708 467.132C546.03 468.319 546.29 469.873 546.086 471.408C545.884 472.93 545.228 474.424 543.718 475.547C542.194 476.68 539.742 477.48 535.861 477.48H115.797C111.917 477.48 109.465 476.68 107.941 475.547C106.431 474.424 105.775 472.93 105.572 471.408C105.368 469.873 105.629 468.319 105.95 467.132C106.11 466.542 106.283 466.051 106.415 465.708C106.481 465.537 106.537 465.402 106.576 465.312C106.587 465.288 106.596 465.267 106.604 465.249C114.104 457.061 125.617 451.259 135.611 447.436C145.615 443.609 154.031 441.788 155.223 441.54L155.417 441.5H496.251Z" stroke="black"/>
<path d="M493.527 448.401C504.534 450.418 511.412 452.55 515.529 454.171C517.589 454.982 518.957 455.665 519.803 456.141C520.226 456.378 520.518 456.564 520.702 456.687C520.794 456.749 520.859 456.795 520.9 456.825C520.92 456.84 520.933 456.851 520.942 456.857C520.945 456.86 520.948 456.861 520.949 456.862V456.863L520.965 456.875C521.918 457.588 522.319 458.143 522.456 458.534C522.579 458.886 522.502 459.144 522.34 459.364C522.16 459.609 521.869 459.809 521.589 459.954C521.454 460.024 521.332 460.075 521.245 460.109C521.221 460.119 521.199 460.126 521.181 460.133H127.9C127.882 460.126 127.86 460.119 127.835 460.109C127.748 460.075 127.626 460.024 127.491 459.954C127.212 459.809 126.921 459.609 126.74 459.364C126.579 459.144 126.501 458.886 126.624 458.534C126.761 458.143 127.163 457.588 128.115 456.875L128.131 456.863L128.13 456.862C128.131 456.861 128.134 456.86 128.138 456.857C128.146 456.851 128.161 456.84 128.181 456.825C128.221 456.795 128.286 456.749 128.378 456.687C128.562 456.564 128.855 456.378 129.278 456.141C130.124 455.665 131.491 454.982 133.551 454.171C137.667 452.55 144.546 450.418 155.554 448.401H493.527Z" stroke="#5D859A"/>
<path d="M493.586 452.412C504.595 454.429 511.473 456.561 515.589 458.182C517.623 458.983 518.981 459.659 519.83 460.134H129.371C130.219 459.659 131.577 458.983 133.611 458.182C137.727 456.561 144.605 454.429 155.614 452.412H493.586Z" stroke="#B1C9CB"/>
</svg>
