<svg width="36" height="36" viewBox="0 0 36 36" fill="none" xmlns="http://www.w3.org/2000/svg">
<path d="M12 4.5C12.75 4.5 15.75 11.25 15.75 12C15.75 13.5 13.5 15 12.75 16.5C12 18 13.5 19.5 15 21C15.585 21.585 18 24 19.5 23.25C21 22.5 22.5 20.25 24 20.25C24.75 20.25 31.5 23.25 31.5 24C31.5 27 29.25 29.25 27 30C24.75 30.75 23.25 30.75 20.25 30C17.25 29.25 15 28.5 11.25 24.75C7.5 21 6.75 18.75 6 15.75C5.25 12.75 5.25 11.25 6 9C6.75 6.75 9 4.5 12 4.5Z" fill="#486284" stroke="#486284" stroke-linecap="round" stroke-linejoin="round"/>
</svg>
